<svg width="58" height="72" viewBox="0 0 58 72" fill="none" xmlns="http://www.w3.org/2000/svg">
<path d="M36.0001 2.66666H9.33341C7.5653 2.66666 5.86961 3.36904 4.61937 4.61928C3.36913 5.86952 2.66675 7.56521 2.66675 9.33332V62.6667C2.66675 64.4348 3.36913 66.1305 4.61937 67.3807C5.86961 68.6309 7.5653 69.3333 9.33341 69.3333H49.3334C51.1015 69.3333 52.7972 68.6309 54.0475 67.3807C55.2977 66.1305 56.0001 64.4348 56.0001 62.6667V22.6667M36.0001 2.66666L56.0001 22.6667M36.0001 2.66666V22.6667H56.0001M42.6667 39.3333H16.0001M42.6667 52.6667H16.0001M22.6667 26H16.0001" stroke="#1E1E1E" stroke-width="4" stroke-linecap="round" stroke-linejoin="round"/>
</svg>
