<svg width="70" height="75" viewBox="0 0 70 75" fill="none" xmlns="http://www.w3.org/2000/svg">
<path d="M26 62.3333C9.33329 67.3333 9.33329 54 2.66663 52.3333M49.3333 72.3333V59.4333C49.4583 57.8439 49.2436 56.246 48.7033 54.746C48.1631 53.2459 47.3097 51.8781 46.2 50.7333C56.6666 49.5667 67.6666 45.6 67.6666 27.4C67.6658 22.7461 65.8756 18.2707 62.6666 14.9C64.1861 10.8283 64.0787 6.32783 62.3666 2.33333C62.3666 2.33333 58.4333 1.16666 49.3333 7.26666C41.6933 5.19607 33.6399 5.19607 26 7.26666C16.9 1.16666 12.9666 2.33333 12.9666 2.33333C11.2545 6.32783 11.1471 10.8283 12.6666 14.9C9.43372 18.2957 7.6417 22.8115 7.66663 27.5C7.66663 45.5667 18.6666 49.5333 29.1333 50.8333C28.0366 51.9666 27.1908 53.318 26.651 54.7997C26.1111 56.2814 25.8893 57.8602 26 59.4333V72.3333" stroke="#1E1E1E" stroke-width="4" stroke-linecap="round" stroke-linejoin="round"/>
</svg>
