<svg width="80" height="80" viewBox="0 0 80 80" fill="none" xmlns="http://www.w3.org/2000/svg">
<path d="M58.3333 21.6667H58.3666M23.3333 6.66666H56.6666C65.8714 6.66666 73.3333 14.1286 73.3333 23.3333V56.6667C73.3333 65.8714 65.8714 73.3333 56.6666 73.3333H23.3333C14.1285 73.3333 6.66663 65.8714 6.66663 56.6667V23.3333C6.66663 14.1286 14.1285 6.66666 23.3333 6.66666ZM53.3333 37.9C53.7447 40.6741 53.2708 43.5074 51.9792 45.9967C50.6875 48.486 48.6438 50.5047 46.1387 51.7656C43.6336 53.0264 40.7948 53.4653 38.0259 53.0198C35.257 52.5742 32.6992 51.2669 30.7161 49.2839C28.733 47.3008 27.4257 44.7429 26.9802 41.974C26.5346 39.2052 26.9735 36.3663 28.2344 33.8612C29.4953 31.3562 31.5139 29.3125 34.0032 28.0208C36.4926 26.7291 39.3258 26.2553 42.1 26.6667C44.9297 27.0863 47.5495 28.4049 49.5723 30.4277C51.5951 32.4505 52.9137 35.0702 53.3333 37.9Z" stroke="#1E1E1E" stroke-width="4" stroke-linecap="round" stroke-linejoin="round"/>
</svg>
